<?xml version="1.0" encoding="UTF-8"?>
<svg id="Layer_2" data-name="Layer 2" xmlns="http://www.w3.org/2000/svg" viewBox="0 0 517.78 160.08">
  <defs>
    <style>
      .cls-1 {
        fill: #fff;
        stroke-width: 0px;
      }
    </style>
  </defs>
  <g id="Layer_1-2" data-name="Layer 1">
    <g>
      <g>
        <path class="cls-1" d="m116.62,134.79V25.29h50.33c21.41,0,34.32,8.83,34.32,27.29,0,12.75-7.19,21.41-21.24,23.53v1.31c16.67,2.12,25.17,12.91,25.17,27.29,0,18.63-13.24,30.07-36.28,30.07h-52.29Zm17.65-64.06h31.05c13.24,0,18.47-3.6,18.47-14.71s-4.74-14.87-17.98-14.87h-31.54v29.58Zm0,48.21h34.15c13.24,0,18.96-3.76,18.96-16.67s-5.72-16.83-18.96-16.83h-34.15v33.5Z"/>
        <path class="cls-1" d="m214.34,94.09c0-25.16,15.04-42.16,39.22-42.16,21.9,0,37.26,13.07,37.26,35.3,0,4.25-.49,8.66-.98,11.11h-58.99c.65,14.87,6.05,22.39,23.04,22.39,13.56,0,18.79-4.58,18.79-11.93v-1.31h17.48v1.47c0,16.67-14.54,27.46-36.44,27.46-26.8,0-39.38-17-39.38-42.33Zm16.67-7.52h42.98c.65-13.89-6.86-19.77-20.75-19.77-15.36,0-21.24,7.19-22.23,19.77Z"/>
        <path class="cls-1" d="m304.86,134.79V53.07h16.18v12.91h.82c3.27-7.52,10.79-14.05,22.71-14.05,17,0,23.53,12.42,23.53,27.62v5.39h-17.65v-3.27c0-10.79-3.1-14.71-13.4-14.71s-14.54,4.08-14.54,14.87v52.95h-17.65Z"/>
        <path class="cls-1" d="m379.38,134.79V25.29h17.65v109.49h-17.65Z"/>
        <path class="cls-1" d="m413.36,43.27l-.16-17.98h17.65v17.98h-17.48Zm0,91.52V53.07h17.65v81.71h-17.65Z"/>
        <path class="cls-1" d="m440.98,134.79v-13.89l39.55-40.2,10.46-10.29v-1.31h-47.56v-15.53h71.9v15.03l-40.69,40.2-9.48,9.15v1.31h52.62v15.53h-76.8Z"/>
      </g>
      <g>
        <polygon class="cls-1" points="0 0 0 18.35 70.49 18.35 70.49 39.45 18.56 68.05 18.56 35.38 .21 35.38 .21 99.11 88.83 50.29 88.83 0 0 0"/>
        <polygon class="cls-1" points="0 132.51 70.49 92.25 70.49 141.73 0 141.73 0 160.08 88.83 160.08 88.83 60.81 0 110.65 0 132.51"/>
      </g>
    </g>
  </g>
</svg>