<?xml version="1.0" encoding="UTF-8"?>
<svg id="Layer_2" data-name="Layer 2" xmlns="http://www.w3.org/2000/svg" viewBox="0 0 728.58 225.25">
  <defs>
    <style>
      .cls-1 {
        fill: #140000;
        stroke-width: 0px;
      }
    </style>
  </defs>
  <g id="Layer_1-2" data-name="Layer 1">
    <g>
      <g>
        <path class="cls-1" d="m164.11,189.66V35.59h70.82c30.13,0,48.29,12.42,48.29,38.4,0,17.94-10.12,30.12-29.89,33.11v1.84c23.46,2.99,35.41,18.16,35.41,38.4,0,26.21-18.63,42.31-51.05,42.31h-73.58Zm24.84-90.14h43.69c18.62,0,25.98-5.06,25.98-20.7s-6.67-20.93-25.29-20.93h-44.38v41.62Zm0,67.84h48.06c18.63,0,26.67-5.29,26.67-23.46s-8.05-23.68-26.67-23.68h-48.06v47.14Z"/>
        <path class="cls-1" d="m301.6,132.4c0-35.41,21.16-59.32,55.19-59.32,30.81,0,52.43,18.39,52.43,49.67,0,5.98-.69,12.19-1.38,15.64h-83.01c.92,20.93,8.51,31.5,32.42,31.5,19.09,0,26.45-6.44,26.45-16.79v-1.84h24.6v2.07c0,23.46-20.46,38.63-51.28,38.63-37.71,0-55.42-23.92-55.42-59.56Zm23.46-10.58h60.48c.92-19.54-9.66-27.82-29.2-27.82-21.62,0-29.89,10.11-31.27,27.82Z"/>
        <path class="cls-1" d="m428.99,189.66v-114.98h22.76v18.17h1.15c4.6-10.58,15.18-19.78,31.96-19.78,23.92,0,33.11,17.47,33.11,38.86v7.59h-24.83v-4.6c0-15.18-4.37-20.7-18.86-20.7s-20.47,5.75-20.47,20.93v74.5h-24.83Z"/>
        <path class="cls-1" d="m533.83,189.66V35.59h24.83v154.07h-24.83Z"/>
        <path class="cls-1" d="m581.66,60.88l-.23-25.29h24.83v25.29h-24.6Zm0,128.77v-114.98h24.84v114.98h-24.84Z"/>
        <path class="cls-1" d="m620.51,189.66v-19.55l55.65-56.57,14.72-14.48v-1.84h-66.92v-21.85h101.18v21.15l-57.26,56.57-13.34,12.88v1.84h74.04v21.85h-108.07Z"/>
      </g>
      <g>
        <polygon class="cls-1" points="125 0 125 70.76 .3 139.46 .3 49.78 26.12 49.78 26.12 95.76 99.19 55.5 99.19 25.81 0 25.81 0 0 125 0"/>
        <polygon class="cls-1" points="125 85.57 125 225.25 0 225.25 0 199.43 99.19 199.43 99.19 129.8 .01 186.45 0 186.46 0 155.69 .01 155.68 125 85.57"/>
      </g>
    </g>
  </g>
</svg>