<?xml version="1.0" encoding="UTF-8"?>
<svg id="Layer_2" data-name="Layer 2" xmlns="http://www.w3.org/2000/svg" viewBox="0 0 611.48 189.05">
  <defs>
    <style>
      .cls-1, .cls-2 {
        stroke-width: 0px;
      }

      .cls-2 {
        fill: #d00;
      }
    </style>
  </defs>
  <g id="Layer_1-2" data-name="Layer 1">
    <g>
      <g>
        <path class="cls-1" d="m137.73,159.18V29.87h59.44c25.28,0,40.53,10.42,40.53,32.23,0,15.05-8.49,25.28-25.09,27.79v1.54c19.69,2.51,29.72,15.25,29.72,32.23,0,22-15.63,35.51-42.85,35.51h-61.76Zm20.84-75.65h36.67c15.63,0,21.81-4.25,21.81-17.37s-5.6-17.56-21.23-17.56h-37.25v34.93Zm0,56.93h40.33c15.63,0,22.39-4.44,22.39-19.69s-6.75-19.88-22.39-19.88h-40.33v39.56Z"/>
        <path class="cls-1" d="m253.12,111.12c0-29.72,17.76-49.79,46.32-49.79,25.86,0,44,15.44,44,41.68,0,5.02-.58,10.23-1.16,13.12h-69.67c.77,17.56,7.14,26.44,27.21,26.44,16.02,0,22.2-5.4,22.2-14.09v-1.54h20.65v1.74c0,19.69-17.17,32.42-43.04,32.42-31.65,0-46.51-20.07-46.51-49.99Zm19.69-8.88h50.76c.77-16.4-8.1-23.35-24.51-23.35-18.14,0-25.09,8.49-26.25,23.35Z"/>
        <path class="cls-1" d="m360.03,159.18V62.68h19.11v15.25h.97c3.86-8.88,12.74-16.6,26.82-16.6,20.07,0,27.79,14.66,27.79,32.62v6.37h-20.84v-3.86c0-12.74-3.67-17.37-15.83-17.37s-17.18,4.82-17.18,17.56v62.53h-20.84Z"/>
        <path class="cls-1" d="m448.03,159.18V29.87h20.84v129.31h-20.84Z"/>
        <path class="cls-1" d="m488.16,51.1l-.19-21.23h20.84v21.23h-20.65Zm0,108.08V62.68h20.84v96.5h-20.84Z"/>
        <path class="cls-1" d="m520.78,159.18v-16.41l46.7-47.48,12.35-12.16v-1.54h-56.16v-18.34h84.91v17.75l-48.05,47.48-11.19,10.81v1.54h62.14v18.34h-90.7Z"/>
      </g>
      <g>
        <polygon class="cls-2" points="0 0 0 21.67 83.24 21.67 83.24 46.59 21.92 80.37 21.92 41.78 .25 41.78 .25 117.05 104.91 59.39 104.91 0 0 0"/>
        <polygon class="cls-2" points="0 156.49 83.24 108.94 83.24 167.38 0 167.38 0 189.05 104.91 189.05 104.91 71.82 0 130.67 0 156.49"/>
      </g>
    </g>
  </g>
</svg>